<?xml version="1.0" standalone="no"?>
<!DOCTYPE svg PUBLIC "-//W3C//DTD SVG 20010904//EN"
 "http://www.w3.org/TR/2001/REC-SVG-20010904/DTD/svg10.dtd">
<svg version="1.0" xmlns="http://www.w3.org/2000/svg"
 width="1024.000000pt" height="1024.000000pt" viewBox="0 0 1024.000000 1024.000000"
 preserveAspectRatio="xMidYMid meet">
<metadata>
Created by potrace 1.16, written by Peter Selinger 2001-2019
</metadata>
<g transform="translate(0.000000,1024.000000) scale(0.100000,-0.100000)"
fill="#000000" stroke="none">
<path d="M2220 5115 l0 -2905 2905 0 2905 0 0 2905 0 2905 -2905 0 -2905 0 0
-2905z m3265 2810 c346 -46 706 -163 1001 -326 724 -401 1240 -1097 1408
-1897 73 -347 79 -720 20 -1067 -32 -184 -117 -481 -134 -470 -6 3 -7 -1 -4
-9 7 -18 -25 -106 -38 -106 -5 0 -7 10 -3 23 5 19 5 20 -5 4 -9 -14 -9 -22 1
-33 10 -12 10 -17 -1 -27 -9 -9 -11 -9 -6 0 10 18 -11 25 -27 9 -9 -9 -19 -11
-28 -5 -20 13 -29 11 -29 -5 0 -8 -4 -17 -10 -21 -5 -3 -5 6 1 24 6 18 16 28
23 25 8 -3 16 2 20 12 4 11 2 15 -8 11 -16 -6 -18 -12 43 173 36 110 64 211
59 216 -2 2 -19 -47 -37 -109 -18 -62 -57 -175 -87 -252 -68 -173 -195 -428
-207 -416 -5 5 5 34 26 69 55 93 112 218 161 347 46 127 120 389 113 408 -2 6
-13 -25 -24 -68 -51 -194 -91 -320 -100 -312 -2 2 4 24 12 47 9 24 13 50 10
58 -2 7 -1 11 4 8 11 -7 24 41 16 54 -4 6 -1 10 4 10 6 0 11 5 11 11 0 8 -5 8
-15 -1 -8 -7 -13 -16 -10 -20 6 -9 -55 -33 -63 -25 -3 3 0 5 7 5 7 0 9 5 6 10
-4 6 -2 16 3 23 9 12 34 158 28 165 -2 2 -9 -21 -16 -50 -17 -77 -127 -388
-151 -428 -16 -27 -32 -65 -31 -72 1 -5 -3 -8 -8 -8 -6 0 -15 -12 -20 -26 -6
-15 -20 -40 -31 -55 -11 -16 -17 -29 -13 -29 5 0 3 -5 -4 -12 -9 -9 -7 -18 11
-37 l22 -26 -30 25 c-16 14 -31 26 -33 27 -2 0 7 18 21 40 94 151 199 403 241
583 30 128 60 299 53 306 -2 3 -8 -17 -11 -43 -13 -89 -77 -335 -115 -442 -46
-126 -108 -272 -122 -286 -6 -5 1 17 16 50 44 97 113 278 120 310 5 24 -24
-40 -51 -114 -3 -9 -8 -11 -14 -5 -6 6 -6 22 0 44 7 24 6 36 -1 41 -7 4 -10
23 -7 43 2 20 0 36 -4 36 -7 0 -13 -40 -9 -63 1 -4 -7 -17 -18 -28 -10 -11
-21 -34 -25 -50 -3 -16 -23 -65 -45 -108 -22 -44 -37 -81 -35 -84 2 -2 -3 -21
-12 -42 -13 -31 -18 -36 -25 -23 -6 11 6 46 40 119 95 203 179 478 217 711 25
156 30 519 10 678 -36 268 -106 502 -221 735 -149 303 -291 503 -509 721 -354
353 -783 581 -1267 673 -612 117 -1273 -35 -1804 -414 -332 -238 -557 -492
-785 -890 -35 -60 -66 -112 -70 -115 -3 -3 -14 -16 -23 -30 -9 -13 -17 -18
-17 -11 0 8 -7 11 -20 8 -30 -8 -31 4 -4 62 14 29 26 61 27 72 1 10 4 19 7 19
4 0 12 16 20 35 8 19 17 35 21 35 9 0 33 69 26 76 -3 3 -20 -23 -40 -58 -187
-337 -282 -636 -327 -1027 -18 -155 -8 -515 19 -664 91 -511 296 -943 626
-1321 145 -166 426 -395 645 -524 366 -217 852 -342 1329 -342 315 0 664 73
951 200 97 42 285 139 330 170 44 30 105 64 95 52 -23 -24 -198 -127 -310
-181 -361 -176 -692 -251 -1113 -251 -317 0 -522 32 -812 125 -201 65 -382
155 -591 293 -190 125 -243 168 -415 335 -153 147 -217 225 -338 405 -225 339
-361 693 -423 1107 -27 174 -24 569 5 744 43 258 113 489 208 686 74 154 75
155 66 155 -4 -1 -25 -37 -47 -81 -24 -48 -44 -78 -52 -75 -7 3 -15 0 -19 -6
-4 -7 -9 -6 -15 3 -6 10 -9 10 -9 2 0 -6 5 -15 10 -18 15 -9 2 -25 -15 -18 -9
3 -15 -1 -15 -11 0 -9 -5 -16 -11 -16 -13 0 -6 23 33 115 31 73 153 310 171
333 5 7 7 15 4 18 -5 6 -19 -17 -94 -151 -49 -89 -126 -260 -169 -379 -43
-119 -44 -96 0 31 61 179 143 351 240 502 121 188 387 486 568 639 294 247
684 451 1043 547 359 95 794 112 1155 44 436 -83 901 -305 1230 -588 41 -35
64 -52 50 -37 -67 75 -297 241 -482 350 -261 153 -579 264 -898 313 -180 28
-619 25 -794 -5 -455 -79 -829 -241 -1201 -520 -242 -182 -423 -369 -621 -644
-95 -132 -219 -363 -290 -537 -23 -57 -44 -97 -47 -90 -4 8 -4 2 -1 -13 4 -18
2 -28 -6 -28 -6 0 -9 -4 -6 -9 4 -5 1 -20 -4 -33 -10 -22 -10 -22 -5 5 3 15 2
27 -3 27 -5 0 -9 7 -9 15 0 8 4 15 8 15 5 0 6 7 3 15 -9 23 -33 18 -29 -6 4
-20 3 -20 -23 -4 -24 16 -24 14 7 -18 18 -19 31 -41 28 -49 -4 -9 -6 -7 -6 5
-1 19 -3 20 -25 11 -9 -3 -13 -10 -10 -15 3 -5 0 -9 -6 -9 -7 0 -9 7 -6 16 4
12 1 14 -14 9 -19 -6 -19 -5 -3 42 9 26 20 54 26 61 6 7 11 23 13 35 7 67 159
366 278 547 481 732 1254 1191 2137 1269 139 13 436 6 584 -14z m-85 -346
c242 -26 543 -114 766 -224 141 -70 351 -204 479 -308 113 -91 326 -315 415
-435 380 -514 543 -1137 464 -1767 -24 -192 -89 -469 -107 -458 -6 3 -7 1 -3
-6 8 -12 -42 -176 -51 -167 -3 2 4 30 16 60 22 59 19 78 -3 25 l-13 -32 -19
32 c-22 37 -29 39 -31 9 -2 -18 0 -20 7 -8 8 13 10 13 10 -1 0 -27 -13 -31
-26 -8 -9 19 -7 35 12 91 13 37 24 73 23 80 0 7 -16 -31 -34 -85 -41 -120
-107 -281 -147 -362 -36 -72 -34 -69 -48 -60 -7 4 0 25 20 61 18 30 28 54 23
54 -4 0 -2 4 5 9 7 4 15 14 16 22 2 8 13 36 25 63 17 35 20 51 12 59 -6 6 -11
18 -11 26 0 8 3 11 7 8 3 -4 12 1 19 11 12 15 12 15 7 -5 -3 -13 -10 -23 -15
-23 -5 0 -6 -5 -2 -12 5 -7 15 5 26 32 17 41 18 45 2 59 -9 9 -14 10 -10 4 4
-7 2 -13 -4 -13 -6 0 -9 -3 -7 -7 7 -11 -19 -33 -28 -25 -4 4 -5 0 -3 -8 2 -8
-2 -14 -9 -15 -6 0 -15 -4 -20 -9 -4 -5 -3 -6 4 -2 7 4 17 -2 23 -14 12 -22 1
-27 -20 -7 -12 10 -12 9 -3 -3 12 -16 11 -65 -1 -77 -3 -3 -6 -1 -6 5 0 7 -5
12 -10 12 -6 0 -8 -11 -6 -25 3 -16 1 -23 -6 -19 -5 3 -8 17 -5 31 3 15 0 22
-7 20 -6 -3 -10 -9 -9 -15 2 -6 -4 -9 -12 -6 -14 6 -13 15 8 42 8 10 16 8 36
-10 l26 -23 -26 30 c-20 22 -25 35 -19 50 5 11 9 29 9 40 0 17 -2 16 -11 -5
-64 -143 -109 -230 -118 -230 -6 0 -8 -4 -5 -10 7 -11 139 -125 364 -314 77
-65 141 -123 141 -127 0 -19 -26 -7 -61 29 -20 20 -54 51 -74 67 -49 40 -95
79 -124 107 -14 13 -19 16 -12 6 9 -13 9 -18 0 -24 -7 -4 -9 -3 -6 3 3 5 -5
22 -19 39 -14 16 -23 23 -19 17 3 -7 2 -13 -3 -13 -5 0 -9 -15 -8 -32 1 -22 7
-33 16 -33 8 0 15 -5 15 -12 0 -6 3 -15 8 -19 11 -12 8 -24 -5 -20 -7 1 -10 1
-5 -1 4 -3 4 -9 1 -14 -3 -6 -17 -3 -32 7 l-27 16 25 -24 c24 -23 25 -23 43
-5 10 10 16 25 13 34 -5 13 -4 14 9 3 12 -10 13 -16 3 -29 -24 -31 -41 -38
-79 -34 -33 3 -38 2 -32 -13 4 -12 3 -15 -6 -10 -6 4 -20 2 -29 -6 -16 -12
-16 -11 -2 6 14 18 13 19 -7 14 -15 -4 -20 -2 -16 8 5 15 23 14 36 -1 6 -6 7
-4 4 5 -5 17 28 20 54 5 7 -4 3 4 -10 18 -14 15 -29 27 -35 26 -6 0 -5 -3 2
-6 6 -2 10 -9 6 -14 -3 -5 -14 -5 -26 2 -11 6 -18 7 -15 1 4 -5 -4 -14 -18
-20 -18 -8 -26 -8 -34 2 -6 7 -9 15 -6 18 3 2 -1 5 -9 5 -10 0 -7 -11 12 -36
14 -20 22 -33 18 -29 -5 4 -18 3 -30 -3 -19 -9 -20 -9 -3 4 16 14 16 15 -8 31
-14 9 -25 12 -25 7 0 -5 5 -11 12 -13 8 -3 8 -9 -1 -24 -8 -12 -11 -13 -8 -3
6 17 -29 39 -61 39 -15 0 -15 -2 -2 -10 10 -6 11 -10 3 -10 -19 0 -28 4 -26
12 3 8 -19 1 -57 -19 -14 -7 -19 -13 -11 -13 8 0 11 -3 8 -6 -4 -4 -13 -1 -21
6 -14 11 -14 14 -1 27 8 8 15 19 15 25 0 6 -11 -1 -25 -16 -14 -16 -30 -24
-37 -20 -7 5 -9 2 -6 -8 4 -8 1 -15 -7 -15 -9 0 -11 7 -5 21 4 12 12 20 17 19
4 0 13 5 20 12 10 10 9 15 -5 20 -9 3 -13 3 -10 -1 4 -3 -6 -17 -23 -31 -26
-23 -33 -24 -59 -13 -16 6 -35 8 -42 4 -10 -6 -11 -5 -1 7 10 12 7 15 -18 17
-17 1 -36 3 -42 5 -25 4 -11 -28 20 -48 17 -11 34 -28 36 -37 7 -24 -49 20
-259 202 -152 131 -438 383 -454 400 -3 3 -59 52 -125 110 -110 96 -393 348
-405 360 -5 6 -122 103 -129 107 -5 3 370 393 379 393 4 0 85 -69 181 -153
226 -197 488 -420 564 -479 33 -25 176 -145 318 -267 141 -122 259 -221 261
-221 18 0 133 260 179 405 41 129 82 305 97 425 19 142 24 448 11 552 -14 103
-36 212 -50 243 -23 52 -58 176 -60 213 -1 7 -6 10 -13 6 -6 -4 -8 -3 -5 3 8
13 -12 71 -65 188 -71 156 -212 390 -229 379 -5 -3 -9 -2 -8 3 3 20 -2 33 -13
31 -7 -2 -12 3 -10 10 1 6 -2 12 -7 12 -5 0 -23 23 -40 50 -19 31 -36 48 -43
44 -6 -4 -8 -3 -5 3 9 14 -216 232 -313 304 -337 253 -693 390 -1110 430 -596
56 -1259 -198 -1690 -648 -154 -160 -218 -242 -202 -258 4 -3 0 -5 -8 -3 -8 2
-18 -9 -25 -27 -18 -50 -45 -96 -54 -90 -5 2 -8 -3 -7 -13 0 -9 -5 -16 -12
-14 -8 1 -11 -2 -8 -7 4 -5 -18 -56 -48 -113 -127 -240 -201 -458 -247 -733
-27 -156 -32 -483 -11 -630 65 -448 231 -821 514 -1150 345 -401 821 -664
1324 -730 133 -17 429 -20 554 -5 457 56 878 250 1209 556 34 31 64 54 68 50
7 -6 -77 -86 -210 -198 -348 -295 -818 -458 -1321 -458 -598 0 -1126 221
-1556 651 -283 283 -483 653 -575 1064 -44 200 -58 340 -52 560 5 213 25 351
82 561 38 142 38 143 15 100 -11 -22 -20 -52 -20 -68 0 -19 -5 -28 -16 -28
-13 0 -15 6 -10 33 11 51 13 88 4 93 -4 3 -8 0 -8 -6 0 -6 -7 -18 -15 -26 -9
-9 -15 -11 -15 -4 0 6 -6 8 -12 5 -7 -4 -4 0 6 9 12 10 19 27 18 47 -1 32 66
206 116 301 125 239 268 435 447 613 358 359 796 585 1265 654 464 69 888 4
1305 -200 284 -138 535 -332 743 -574 314 -366 509 -826 553 -1305 11 -128 7
-423 -8 -510 -3 -19 -2 -32 2 -28 14 13 35 212 35 333 0 729 -355 1428 -954
1877 -691 518 -1576 598 -2346 213 -440 -221 -817 -589 -1024 -1003 -202 -402
-289 -756 -288 -1167 0 -207 16 -333 68 -543 48 -195 93 -322 174 -487 218
-449 598 -834 1030 -1047 233 -115 458 -183 755 -230 116 -18 473 -15 611 5
218 32 481 112 673 206 25 11 46 19 48 17 8 -7 -147 -76 -269 -119 -247 -88
-437 -124 -718 -133 -542 -19 -1068 154 -1490 491 -428 341 -714 796 -843
1340 -88 371 -78 764 29 1149 23 82 24 89 8 101 -11 8 -14 17 -8 26 9 14 14
34 16 57 2 15 15 16 24 0 4 -6 -1 -17 -11 -25 -11 -7 -15 -13 -10 -13 5 0 4
-5 -3 -12 -9 -9 -9 -15 0 -26 10 -11 18 5 45 84 18 54 31 99 29 102 -3 2 -10
-14 -17 -37 -7 -23 -16 -41 -20 -41 -5 0 -5 -8 -2 -17 6 -15 4 -16 -8 -6 -9 7
-14 27 -13 55 1 24 -4 53 -12 65 -14 23 -9 57 8 47 5 -3 4 -11 -3 -20 -6 -8
-7 -14 -3 -14 14 0 37 42 41 74 1 16 0 26 -4 23 -5 -6 -9 -22 -12 -62 -1 -5
-5 -5 -11 1 -14 14 22 98 47 112 10 6 15 14 11 18 -4 4 6 31 22 59 42 74 37
82 -6 10 -129 -214 -219 -463 -273 -760 -124 -675 44 -1372 467 -1945 71 -95
329 -355 446 -448 275 -218 681 -396 1067 -466 416 -76 809 -51 1184 76 219
74 384 150 533 246 12 8 22 12 22 9 0 -11 -169 -108 -272 -157 -377 -178 -787
-257 -1193 -230 -403 28 -736 133 -1095 344 -61 36 -117 63 -122 59 -7 -3 -8
-1 -4 5 8 13 -28 35 -39 24 -3 -4 -5 -2 -3 4 2 6 -42 46 -97 89 -482 374 -813
941 -925 1585 -27 158 -37 433 -21 585 29 273 104 556 207 786 58 129 168 315
245 414 38 50 95 124 127 165 74 97 286 310 385 388 523 412 1125 590 1767
521z m1226 -925 c28 -26 107 -114 103 -114 -3 0 -45 42 -94 92 -78 80 -81 89
-9 22z m-1238 -45 c194 -37 415 -134 575 -252 118 -86 264 -239 347 -364 117
-174 176 -309 228 -513 24 -95 26 -124 27 -295 0 -119 -5 -216 -13 -260 -19
-99 -59 -230 -92 -300 -15 -33 -30 -67 -33 -75 -4 -12 -6 -12 -6 2 -1 9 -6 20
-13 24 -7 5 -8 3 -3 -7 7 -11 5 -11 -11 1 -10 8 -21 18 -24 21 -4 6 -107 93
-380 323 l-85 71 8 55 c13 81 0 283 -22 368 -74 279 -309 511 -589 579 -100
24 -275 22 -377 -6 -194 -52 -354 -161 -453 -309 -52 -78 -57 -86 -44 -78 6 4
-2 -22 -18 -56 -16 -35 -41 -103 -56 -153 -25 -81 -28 -105 -28 -245 0 -140 3
-164 27 -243 37 -120 92 -225 173 -332 l69 -90 -5 -365 c-3 -201 -8 -357 -12
-347 -5 10 -8 172 -8 360 l0 342 -38 44 c-26 30 -41 41 -46 33 -4 -7 -3 -11 4
-10 7 2 16 -4 20 -12 13 -22 23 -54 22 -63 -1 -4 3 -6 9 -5 25 6 17 -301 -8
-310 -7 -2 -13 2 -13 10 0 7 -4 19 -9 27 -8 12 -12 12 -24 2 -11 -9 -17 -9
-22 -1 -4 6 -4 14 -1 17 3 4 6 1 6 -6 0 -8 5 -7 16 3 8 9 21 13 27 9 7 -3 4 2
-5 13 -14 16 -15 23 -5 34 10 12 9 12 -5 1 -10 -7 -19 -11 -19 -7 -1 3 -2 10
-3 15 0 5 -5 13 -10 18 -5 5 -6 3 -2 -4 4 -7 2 -13 -3 -13 -6 0 -11 -4 -11
-10 0 -5 6 -10 14 -10 7 0 20 -8 27 -17 12 -15 12 -16 -5 -10 -10 4 -24 3 -31
-3 -9 -8 -14 -6 -18 5 -4 8 -13 12 -20 9 -8 -3 -17 2 -20 10 -4 11 0 13 17 10
18 -3 25 2 29 17 3 12 3 18 0 15 -4 -3 -12 -1 -20 5 -7 6 -13 8 -13 5 0 -4
-10 0 -22 8 -14 10 -26 12 -33 6 -7 -6 -11 -3 -12 11 -2 22 1 23 30 8 19 -9
20 -8 6 3 -9 7 -15 21 -13 31 2 15 0 16 -13 6 -8 -8 -17 -9 -21 -3 -12 16 -56
50 -48 37 4 -8 2 -13 -7 -13 -7 0 -14 7 -14 15 0 8 4 15 8 15 4 0 -12 19 -34
43 -23 24 -44 41 -47 38 -3 -3 -13 -12 -22 -19 -14 -11 -16 -11 -13 5 1 10 9
17 16 15 12 -3 12 -1 1 10 -11 11 -16 10 -29 -7 -14 -18 -15 -18 -9 -1 3 10 1
26 -6 34 -11 14 -10 15 7 8 16 -6 17 -5 8 5 -10 10 -15 9 -27 0 -19 -16 -30
-9 -45 27 -7 16 -23 35 -37 42 -23 13 -23 15 -7 32 9 10 12 18 7 18 -5 0 -14
-9 -21 -19 -10 -16 -7 -23 18 -46 17 -15 28 -29 25 -32 -10 -11 -75 67 -70 82
4 8 9 13 13 11 3 -2 11 2 18 9 9 10 2 12 -34 9 -25 -1 -50 -8 -54 -16 -6 -9
-8 -6 -7 8 2 16 7 20 22 16 19 -5 19 -4 -2 25 -12 17 -22 36 -22 41 0 11 -31
9 -52 -4 -6 -4 -8 -3 -4 4 3 6 2 13 -4 17 -5 3 -10 1 -10 -5 0 -6 -4 -8 -10
-5 -19 11 -10 23 15 21 13 -2 24 0 23 3 -1 3 2 14 7 24 8 19 2 30 -20 33 -8 1
-11 -4 -8 -12 3 -8 10 -11 15 -8 6 4 9 1 6 -6 -2 -7 -14 -15 -27 -17 -19 -2
-21 0 -16 17 4 13 2 20 -5 18 -7 -2 -15 3 -17 10 -3 7 1 11 7 10 7 -2 15 4 17
12 3 9 1 11 -4 5 -4 -5 -17 -11 -28 -13 -11 -2 -25 -10 -31 -17 -8 -11 -14
-11 -22 -3 -8 8 -10 3 -8 -18 2 -16 4 -37 5 -47 0 -10 5 -15 11 -12 6 3 7 -1
4 -10 -4 -8 -2 -21 4 -28 11 -15 27 -75 16 -64 -19 18 -70 192 -79 267 -6 43
-5 44 10 23 9 -13 15 -28 14 -35 -5 -40 2 -64 20 -65 33 -3 34 46 1 73 -22 19
-28 33 -28 65 -1 23 -5 46 -10 51 -6 6 -8 -4 -5 -26 2 -20 0 -36 -5 -36 -24 0
-29 341 -7 475 92 563 528 1022 1095 1154 189 45 399 48 598 10z m1383 -126
c13 -16 12 -17 -3 -4 -10 7 -18 15 -18 17 0 8 8 3 21 -13z m12 -71 c9 -8 17
-22 17 -30 0 -11 -9 -7 -30 13 -47 45 -36 59 13 17z m-4055 -282 c-5 -17 -14
-33 -20 -36 -7 -4 -7 0 0 12 11 20 12 25 12 50 0 8 4 13 9 9 6 -3 6 -17 -1
-35z m94 -25 c2 3 5 -2 5 -10 0 -19 0 -19 -23 7 -12 14 -13 18 -3 10 9 -6 18
-10 21 -7z m-141 -22 c13 -17 13 -17 -6 -3 -11 8 -22 16 -24 17 -2 2 0 3 6 3
6 0 17 -8 24 -17z m80 -16 c-10 -9 -11 -8 -5 6 3 10 9 15 12 12 3 -3 0 -11 -7
-18z m79 -10 c0 -7 -7 -22 -16 -33 -14 -18 -15 -18 -4 4 6 12 8 22 5 22 -4 0
-3 5 0 10 9 14 15 13 15 -3z m56 -51 c2 -15 0 -26 -6 -26 -6 0 -8 -6 -4 -12 6
-10 4 -10 -8 0 -14 11 -17 9 -23 -17 -4 -17 -11 -33 -15 -36 -5 -3 -3 11 4 32
7 21 18 39 25 39 22 3 23 4 11 19 -6 8 -9 19 -5 25 9 15 15 8 21 -24z m-224
-20 c-9 -25 -20 -42 -25 -39 -4 2 -4 10 2 16 5 7 11 21 13 32 2 16 15 34 24
35 1 0 -6 -20 -14 -44z m143 4 c3 -5 1 -10 -4 -10 -6 0 -11 5 -11 10 0 6 2 10
4 10 3 0 8 -4 11 -10z m-302 -55 c-3 -9 -8 -14 -10 -11 -3 3 -2 9 2 15 9 16
15 13 8 -4z m130 -35 c-3 -11 -9 -17 -15 -14 -5 3 -4 12 3 20 16 19 18 18 12
-6z m-126 -12 c-3 -8 -6 -5 -6 6 -1 11 2 17 5 13 3 -3 4 -12 1 -19z m413 -135
c-11 -17 -11 -17 -6 0 3 10 6 24 7 30 0 9 2 9 5 0 3 -7 0 -20 -6 -30z m2833
-171 c25 -45 14 -40 -14 6 -13 20 -50 67 -83 103 -61 65 -60 65 9 -6 39 -39
78 -85 88 -103z m-2763 118 c0 -5 -5 -10 -11 -10 -5 0 -7 5 -4 10 3 6 8 10 11
10 2 0 4 -4 4 -10z m-15 -50 c-4 -12 -9 -19 -12 -17 -3 3 -2 15 2 27 4 12 9
19 12 17 3 -3 2 -15 -2 -27z m-5 -32 c0 -2 -7 -23 -14 -48 -11 -32 -15 -38
-15 -20 -1 34 9 70 20 70 5 0 9 -1 9 -2z m-373 -130 c-3 -8 -6 -5 -6 6 -1 11
2 17 5 13 3 -3 4 -12 1 -19z m-180 -45 c-3 -10 -5 -2 -5 17 0 19 2 27 5 18 2
-10 2 -26 0 -35z m650 41 c-3 -3 -12 -4 -19 -1 -8 3 -5 6 6 6 11 1 17 -2 13
-5z m40 -10 c-3 -3 -12 -4 -19 -1 -8 3 -5 6 6 6 11 1 17 -2 13 -5z m58 -14
c13 -5 14 -9 5 -9 -8 0 -24 4 -35 9 -13 5 -14 9 -5 9 8 0 24 -4 35 -9z m-448
-32 c-3 -7 -5 -2 -5 12 0 14 2 19 5 13 2 -7 2 -19 0 -25z m500 16 c-3 -3 -12
-4 -19 -1 -8 3 -5 6 6 6 11 1 17 -2 13 -5z m-810 -96 c-2 -13 -4 -5 -4 17 -1
22 1 32 4 23 2 -10 2 -28 0 -40z m18 -608 c69 -480 253 -925 542 -1310 193
-258 402 -449 713 -653 303 -198 569 -303 944 -371 211 -39 345 -49 589 -43
314 7 522 44 807 142 155 54 399 175 570 284 23 14 24 14 12 -1 -7 -9 -54 -41
-105 -71 -770 -458 -1740 -498 -2552 -107 -137 66 -371 218 -525 340 -458 364
-802 896 -945 1461 -60 240 -77 371 -80 649 l-3 245 8 -225 c4 -124 15 -277
25 -340z m1325 150 c0 -5 -4 -10 -10 -10 -5 0 -10 5 -10 10 0 6 5 10 10 10 6
0 10 -4 10 -10z m-913 -42 c-3 -8 -6 -5 -6 6 -1 11 2 17 5 13 3 -3 4 -12 1
-19z m973 -49 c0 -4 -7 -6 -15 -3 -8 4 -15 10 -15 15 0 4 7 6 15 3 8 -4 15
-10 15 -15z m99 -86 c14 -10 14 -11 -4 -9 -13 2 -21 11 -22 27 -2 14 0 18 4 9
3 -8 13 -20 22 -27z m34 -77 c4 -10 1 -13 -8 -9 -8 3 -12 9 -9 14 7 12 11 11
17 -5z m-118 -87 c14 -29 24 -54 21 -56 -5 -5 -17 16 -39 70 -23 54 -12 46 18
-14z m155 41 c0 -5 -7 -7 -15 -4 -8 4 -15 8 -15 10 0 2 7 4 15 4 8 0 15 -4 15
-10z m77 -56 c-3 -3 -12 -4 -19 -1 -8 3 -5 6 6 6 11 1 17 -2 13 -5z m484 -61
c13 -16 12 -17 -3 -4 -17 13 -22 21 -14 21 2 0 10 -8 17 -17z m-431 -3 c0 -5
-2 -10 -4 -10 -3 0 -8 5 -11 10 -3 6 -1 10 4 10 6 0 11 -4 11 -10z m126 -72
c-10 -17 -26 -15 -26 3 0 6 5 7 10 4 6 -3 10 -2 10 3 0 5 -13 15 -29 22 -24
10 -28 15 -18 25 18 21 68 -33 53 -57z m-341 16 c9 -15 12 -23 6 -20 -11 7
-35 46 -28 46 3 0 12 -12 22 -26z m395 -54 c0 -5 -4 -10 -10 -10 -5 0 -10 5
-10 10 0 6 5 10 10 10 6 0 10 -4 10 -10z m24 -16 c3 -8 2 -12 -4 -9 -6 3 -10
10 -10 16 0 14 7 11 14 -7z m-50 -2 c3 -5 -1 -9 -9 -9 -8 0 -12 4 -9 9 3 4 7
8 9 8 2 0 6 -4 9 -8z m126 -74 c0 -7 -4 -7 -14 1 -7 6 -22 8 -32 4 -16 -6 -17
-5 -4 9 16 17 50 8 50 -14z m-396 -4 c3 -8 2 -12 -4 -9 -6 3 -10 10 -10 16 0
14 7 11 14 -7z m3296 6 c0 -5 -4 -10 -10 -10 -5 0 -10 5 -10 10 0 6 5 10 10
10 6 0 10 -4 10 -10z m55 -29 c-9 -28 -22 -27 -19 2 1 12 3 26 3 32 1 5 6 4
12 -2 6 -6 8 -20 4 -32z m-55 -1 c0 -5 -4 -10 -9 -10 -6 0 -13 5 -16 10 -3 6
1 10 9 10 9 0 16 -4 16 -10z m137 -37 c-5 -12 -14 -23 -19 -23 -14 0 -9 30 6
36 8 3 12 13 9 22 -4 14 -3 14 5 3 7 -10 7 -22 -1 -38z m-164 -3 c-7 -28 -13
-25 -13 6 0 14 4 23 9 20 5 -3 7 -15 4 -26z m63 -17 l-6 -28 15 25 16 25 -6
-25 c-4 -14 -38 -89 -76 -168 -58 -120 -71 -141 -83 -130 -12 11 -11 14 5 22
11 5 42 55 69 113 51 105 61 133 35 99 -8 -11 -17 -17 -20 -14 -3 3 1 13 10
21 8 9 15 25 15 35 0 28 10 52 22 52 6 0 8 -12 4 -27z m-80 -48 c4 -24 3 -26
-10 -16 -13 11 -14 7 -11 -26 l5 -38 -12 34 c-10 28 -9 35 4 45 8 6 13 18 10
26 -3 8 -2 12 2 9 4 -4 9 -19 12 -34z m-3140 -7 l29 -33 -32 29 c-31 28 -38
36 -30 36 2 0 16 -15 33 -32z m3344 22 c0 -5 -5 -10 -11 -10 -5 0 -7 5 -4 10
3 6 8 10 11 10 2 0 4 -4 4 -10z m-345 -30 c10 -11 16 -20 13 -20 -3 0 -13 9
-23 20 -10 11 -16 20 -13 20 3 0 13 -9 23 -20z m335 3 c0 -5 -5 -15 -10 -23
-7 -12 -9 -10 -7 8 1 19 17 33 17 15z m-358 -38 c-3 -20 0 -25 17 -25 14 0 20
4 15 12 -4 7 -3 8 5 4 8 -5 7 -16 -6 -39 -33 -59 -34 -60 -60 -36 -27 26 -28
40 -8 79 19 37 44 40 37 5z m186 -30 c-6 -13 -16 -21 -21 -18 -8 5 -7 8 1 11
7 2 10 8 6 13 -3 5 0 9 6 9 6 0 8 5 4 12 -4 7 -3 8 4 4 8 -5 8 -13 0 -31z
m313 -2 c-12 -20 -14 -14 -5 12 4 9 9 14 11 11 3 -2 0 -13 -6 -23z m-371 -5
c0 -18 -2 -20 -9 -8 -6 8 -7 18 -5 22 9 14 14 9 14 -14z m193 -8 c-3 -11 -10
-23 -16 -27 -5 -3 -8 -2 -5 3 3 5 8 17 11 27 9 24 16 22 10 -3z m-218 -21
c-10 -15 -25 -10 -19 6 4 8 10 12 15 9 5 -3 7 -10 4 -15z m371 -26 c-8 -15
-15 -25 -16 -21 0 12 23 58 27 54 3 -2 -2 -17 -11 -33z m-2321 -48 c20 -7
-241 -3 -290 4 -28 4 24 6 115 3 91 -2 170 -5 175 -7z m2286 -32 c-11 -21 -20
-35 -21 -31 0 12 33 78 38 74 2 -2 -6 -21 -17 -43z m-270 -7 c-6 -8 -9 -21 -5
-30 4 -9 1 -16 -6 -16 -9 0 -9 -4 1 -17 12 -16 11 -15 -8 0 l-22 19 22 45 c14
29 23 39 25 29 2 -9 -1 -23 -7 -30z m342 19 c-3 -9 -8 -14 -10 -11 -3 3 -2 9
2 15 9 16 15 13 8 -4z m-4749 -11 c3 -8 2 -12 -4 -9 -6 3 -10 10 -10 16 0 14
7 11 14 -7z m4504 -40 c-22 -40 -64 -97 -57 -79 10 26 72 125 76 122 2 -3 -6
-22 -19 -43z m145 -19 c-3 -9 -8 -14 -10 -11 -3 3 -2 9 2 15 9 16 15 13 8 -4z
m-23 -45 c-6 -11 -13 -20 -16 -20 -2 0 0 9 6 20 6 11 13 20 16 20 2 0 0 -9 -6
-20z m-260 -30 c0 -17 -26 -17 -27 1 -1 12 3 16 13 12 8 -3 14 -9 14 -13z m51
-37 c11 -15 11 -16 -1 -6 -9 9 -19 9 -34 2 -20 -10 -20 -10 -2 5 24 19 21 20
37 -1z m163 -8 c-9 -14 -18 -25 -21 -25 -5 0 5 18 20 38 17 22 18 13 1 -13z
m-4083 -102 c13 -16 12 -17 -3 -4 -17 13 -22 21 -14 21 2 0 10 -8 17 -17z
m3602 -1 c-10 -10 -20 -14 -22 -9 -2 5 3 13 10 18 24 15 30 10 12 -9z m-3552
-59 c13 -16 12 -17 -3 -4 -10 7 -18 15 -18 17 0 8 8 3 21 -13z m3304 -11 c11
-10 29 -28 40 -41 l20 -24 -20 11 c-22 11 -79 72 -68 72 5 -1 17 -9 28 -18z
m-3205 -99 c0 -8 -9 0 -50 45 l-45 47 48 -45 c26 -24 47 -45 47 -47z m2750
-428 c0 -2 -13 -11 -30 -20 -38 -19 -40 -11 -2 9 31 17 32 18 32 11z m-220
-79 c0 -2 -7 -7 -16 -10 -8 -3 -12 -2 -9 4 6 10 25 14 25 6z m-225 -86 c-27
-12 -43 -12 -25 0 8 5 22 9 30 9 10 0 8 -3 -5 -9z m870 -40 c-3 -5 -16 -15
-28 -21 -19 -9 -19 -8 3 10 28 23 34 26 25 11z m-1212 -37 c-7 -2 -19 -2 -25
0 -7 3 -2 5 12 5 14 0 19 -2 13 -5z m-85 -10 c-10 -2 -26 -2 -35 0 -10 3 -2 5
17 5 19 0 27 -2 18 -5z"/>
<path d="M4955 7740 c-483 -35 -942 -210 -1351 -515 -185 -139 -410 -363 -526
-525 -69 -97 -61 -91 47 35 294 343 557 555 900 725 351 174 646 248 1032 257
310 8 525 -20 799 -102 334 -101 708 -313 984 -559 22 -20 27 -22 15 -7 -39
46 -212 184 -335 266 -380 254 -787 394 -1235 425 -153 11 -181 11 -330 0z"/>
<path d="M2956 6533 c-6 -14 -5 -15 5 -6 7 7 10 15 7 18 -3 3 -9 -2 -12 -12z"/>
<path d="M2968 6508 c-27 -41 -39 -68 -31 -68 4 0 18 21 31 45 24 48 24 60 0
23z"/>
<path d="M7542 6343 c11 -27 47 -109 79 -183 59 -136 75 -159 40 -58 -22 64
-127 288 -135 288 -3 0 4 -21 16 -47z"/>
<path d="M2616 6225 c-9 -26 -7 -32 5 -12 6 10 9 21 6 23 -2 3 -7 -2 -11 -11z"/>
<path d="M2530 6095 c0 -8 2 -15 4 -15 2 0 6 7 10 15 3 8 1 15 -4 15 -6 0 -10
-7 -10 -15z"/>
<path d="M2475 6070 c-3 -5 -1 -10 4 -10 6 0 11 5 11 10 0 6 -2 10 -4 10 -3 0
-8 -4 -11 -10z"/>
<path d="M2450 6011 c0 -10 30 -24 37 -17 3 2 -5 9 -16 16 -12 6 -21 7 -21 1z"/>
<path d="M7565 5915 c38 -125 49 -166 75 -289 16 -72 29 -121 29 -110 3 62
-86 413 -110 439 -5 5 -2 -13 6 -40z"/>
<path d="M7782 4785 c0 -16 2 -22 5 -12 2 9 2 23 0 30 -3 6 -5 -1 -5 -18z"/>
<path d="M7642 4750 c0 -14 2 -19 5 -12 2 6 2 18 0 25 -3 6 -5 1 -5 -13z"/>
<path d="M7756 4634 c-10 -58 -15 -108 -13 -111 3 -2 10 24 15 59 18 106 24
158 20 158 -3 0 -13 -48 -22 -106z"/>
<path d="M7802 4640 c0 -14 2 -19 5 -12 2 6 2 18 0 25 -3 6 -5 1 -5 -13z"/>
<path d="M7646 4574 c-4 -20 -5 -38 -3 -40 3 -3 8 11 11 32 4 20 5 38 3 40 -3
3 -8 -11 -11 -32z"/>
<path d="M7792 4590 c0 -14 2 -19 5 -12 2 6 2 18 0 25 -3 6 -5 1 -5 -13z"/>
<path d="M7781 4534 c0 -11 3 -14 6 -6 3 7 2 16 -1 19 -3 4 -6 -2 -5 -13z"/>
<path d="M7632 4500 c0 -14 2 -19 5 -12 2 6 2 18 0 25 -3 6 -5 1 -5 -13z"/>
<path d="M7771 4494 c0 -11 3 -14 6 -6 3 7 2 16 -1 19 -3 4 -6 -2 -5 -13z"/>
<path d="M7481 4444 c0 -11 3 -14 6 -6 3 7 2 16 -1 19 -3 4 -6 -2 -5 -13z"/>
<path d="M7541 4374 c0 -11 3 -14 6 -6 3 7 2 16 -1 19 -3 4 -6 -2 -5 -13z"/>
<path d="M7750 4129 c0 -5 5 -7 10 -4 6 3 10 8 10 11 0 2 -4 4 -10 4 -5 0 -10
-5 -10 -11z"/>
<path d="M7361 4694 c0 -11 3 -14 6 -6 3 7 2 16 -1 19 -3 4 -6 -2 -5 -13z"/>
<path d="M7346 4634 c-4 -20 -5 -38 -3 -40 3 -3 8 11 11 32 4 20 5 38 3 40 -3
3 -8 -11 -11 -32z"/>
<path d="M7315 4515 c-9 -36 -15 -68 -13 -71 3 -2 13 25 23 61 9 36 15 68 13
71 -3 2 -13 -25 -23 -61z"/>
<path d="M7352 4530 c0 -14 2 -19 5 -12 2 6 2 18 0 25 -3 6 -5 1 -5 -13z"/>
<path d="M7280 4386 c0 -9 -4 -15 -8 -12 -5 3 -9 0 -9 -7 0 -7 -4 -20 -8 -29
-4 -11 -3 -18 3 -18 12 0 37 68 28 77 -3 4 -6 -1 -6 -11z"/>
<path d="M7156 4336 c-8 -33 -5 -39 10 -22 6 6 8 20 4 31 -6 17 -8 16 -14 -9z"/>
<path d="M7028 3970 c18 -16 30 -30 27 -30 -4 0 0 -7 9 -15 8 -8 20 -15 26
-15 7 0 -7 20 -31 45 -24 25 -48 45 -53 45 -6 0 4 -13 22 -30z"/>
<path d="M7113 3895 c0 -8 7 -15 15 -15 12 0 12 3 2 15 -7 8 -13 15 -15 15 -1
0 -2 -7 -2 -15z"/>
<path d="M7153 3843 c9 -9 20 -13 24 -9 4 4 1 11 -7 16 -25 16 -35 11 -17 -7z"/>
<path d="M6556 3697 c3 -10 9 -15 12 -12 3 3 0 11 -7 18 -10 9 -11 8 -5 -6z"/>
<path d="M6710 3671 c0 -10 19 -25 25 -20 1 2 -3 10 -11 17 -8 7 -14 8 -14 3z"/>
<path d="M3740 4951 c0 -5 7 -11 15 -15 8 -3 15 -1 15 3 0 5 -7 11 -15 15 -8
3 -15 1 -15 -3z"/>
<path d="M3800 4880 c-8 -5 -12 -12 -9 -15 4 -3 12 1 19 10 14 17 11 19 -10 5z"/>
<path d="M3976 4713 c-12 -12 -5 -22 14 -20 11 1 20 4 20 8 0 10 -27 19 -34
12z"/>
<path d="M4400 4685 c0 -5 10 -21 21 -35 13 -17 17 -18 10 -5 -17 33 -31 51
-31 40z"/>
<path d="M4460 4590 c12 -16 24 -30 26 -30 3 0 -4 14 -16 30 -12 17 -24 30
-26 30 -3 0 4 -13 16 -30z"/>
<path d="M4080 4578 c0 -20 18 -43 27 -35 4 5 1 12 -6 16 -7 5 -10 14 -7 20 4
6 2 11 -3 11 -6 0 -11 -6 -11 -12z"/>
<path d="M4240 4481 c0 -6 4 -13 10 -16 6 -3 7 1 4 9 -7 18 -14 21 -14 7z"/>
<path d="M4307 4399 c7 -7 15 -10 18 -7 3 3 -2 9 -12 12 -14 6 -15 5 -6 -5z"/>
<path d="M4404 4323 c10 -19 44 -35 50 -24 3 5 -2 15 -11 22 -12 10 -14 10 -9
2 4 -7 3 -13 -1 -13 -5 0 -15 6 -22 13 -11 9 -12 9 -7 0z"/>
<path d="M4440 4230 c0 -5 5 -10 11 -10 5 0 7 5 4 10 -3 6 -8 10 -11 10 -2 0
-4 -4 -4 -10z"/>
</g>
</svg>
